<?xml version="1.0" encoding="UTF-8"?>
<svg version="1.1" xmlns="http://www.w3.org/2000/svg" width="141" height="143">
<path d="M0 0 C1.24221313 0.05873291 1.24221313 0.05873291 2.50952148 0.11865234 C8.31433301 0.43933301 8.31433301 0.43933301 9.4375 1.5625 C14.684767 37.09815821 12.86878528 81.59508677 -6.5625 112.5625 C-7.08199219 113.3978125 -7.60148437 114.233125 -8.13671875 115.09375 C-17.87104083 129.02094129 -34.4752093 138.37873889 -50.9375 141.5 C-56.50127771 142.4254274 -61.93337074 143.10977646 -67.5625 142.5625 C-68.531875 142.4696875 -69.50125 142.376875 -70.5 142.28125 C-88.7931051 139.99461186 -104.76605742 131.86596643 -116.5625 117.5625 C-128.88838607 100.58364786 -132.7558744 81.97645742 -130.29443359 61.31201172 C-127.17924811 43.233361 -116.17691587 27.51589318 -101.6875 16.625 C-72.62265262 -1.9709924 -33.30046085 -1.62625047 0 0 Z " fill="#8AF97F" transform="translate(130.5625,0.4375)"/>
<path d="M0 0 C1.24221313 0.05873291 1.24221313 0.05873291 2.50952148 0.11865234 C8.31433301 0.43933301 8.31433301 0.43933301 9.4375 1.5625 C14.684767 37.09815821 12.86878528 81.59508677 -6.5625 112.5625 C-7.08199219 113.3978125 -7.60148437 114.233125 -8.13671875 115.09375 C-17.87104083 129.02094129 -34.4752093 138.37873889 -50.9375 141.5 C-56.50127771 142.4254274 -61.93337074 143.10977646 -67.5625 142.5625 C-68.531875 142.4696875 -69.50125 142.376875 -70.5 142.28125 C-88.7931051 139.99461186 -104.76605742 131.86596643 -116.5625 117.5625 C-128.88838607 100.58364786 -132.7558744 81.97645742 -130.29443359 61.31201172 C-127.17924811 43.233361 -116.17691587 27.51589318 -101.6875 16.625 C-72.62265262 -1.9709924 -33.30046085 -1.62625047 0 0 Z M-105.5625 37.5625 C-108.22270077 41.07073442 -110.45446749 44.70058445 -112.5625 48.5625 C-112.97371094 49.31402344 -113.38492188 50.06554688 -113.80859375 50.83984375 C-120.35672141 64.10399979 -119.1173302 77.99822895 -114.78735352 91.67919922 C-112.3327826 98.82778062 -108.98753654 106.27914231 -102.5625 110.5625 C-101.95664063 109.55832031 -101.35078125 108.55414063 -100.7265625 107.51953125 C-86.80343962 84.68774354 -70.05266931 65.36525055 -47.5625 50.5625 C-49.89002745 52.90624715 -52.21635183 55.23986378 -54.6328125 57.4921875 C-70.70165439 72.70565378 -88.16189645 98.4871825 -89.75 121.25 C-87.68663474 125.26813234 -83.67700068 126.17824163 -79.5625 127.5625 C-66.01818724 131.86652757 -51.11980849 129.87298649 -38.375 123.9375 C-22.74361776 115.47571175 -13.68358316 103.41828822 -8.5625 86.5625 C-2.84547311 65.37266047 2.76489783 33.77585073 -3.5625 12.5625 C-58.98335031 11.28122719 -58.98335031 11.28122719 -105.5625 37.5625 Z " fill="#000100" transform="translate(130.5625,0.4375)"/>
</svg>
